HIERARCHY
ROOT Pelvis
{
	OFFSET 0.000000 0.000000 0.000000
	CHANNELS 6 Xposition Yposition Zposition Xrotation Yrotation Zrotation
	JOINT LeftUpLeg_virtual
	{
		OFFSET 0.000000 0.000000 0.000000
		CHANNELS 3 Xrotation Yrotation Zrotation
		JOINT LeftUpLeg
		{
			OFFSET 18.735201 -5.666702 -4.541200
			CHANNELS 3 Xrotation Yrotation Zrotation
			JOINT LeftLeg
			{
				OFFSET -0.021200 -31.938179 0.493100
				CHANNELS 3 Xrotation Yrotation Zrotation
				JOINT LeftFoot
				{
					OFFSET 0.021200 -31.938179 -4.336299
					CHANNELS 3 Xrotation Yrotation Zrotation
					JOINT LeftToeBase
					{
						OFFSET 0.943001 -26.722000 15.023500
						CHANNELS 3 Xrotation Yrotation Zrotation
						End Site
						{
							OFFSET 0 0 0
						}
					}
				}
			}
		}
	}
	JOINT RightUpLeg_virtual
	{
		OFFSET 0.000000 0.000000 0.000000
		CHANNELS 3 Xrotation Yrotation Zrotation
		JOINT RightUpLeg
		{
			OFFSET -18.735201 -5.666702 -4.541200
			CHANNELS 3 Xrotation Yrotation Zrotation
			JOINT RightLeg
			{
				OFFSET 0.018946 -31.938133 0.493100
				CHANNELS 3 Xrotation Yrotation Zrotation
				JOINT RightFoot
				{
					OFFSET -0.018946 -31.938126 -4.336299
					CHANNELS 3 Xrotation Yrotation Zrotation
					JOINT RightToeBase
					{
						OFFSET -0.943001 -26.722004 15.023500
						CHANNELS 3 Xrotation Yrotation Zrotation
						End Site
						{
							OFFSET 0 0 0
						}
					}
				}
			}
		}
	}
	JOINT Hips_virtual
	{
		OFFSET 0.000000 0.000000 0.000000
		CHANNELS 3 Xrotation Yrotation Zrotation
		JOINT Hips
		{
			OFFSET -0.000000 -0.000000 -0.000000
			CHANNELS 3 Xrotation Yrotation Zrotation
			JOINT Spine
			{
				OFFSET 0.000000 10.199997 -0.299500
				CHANNELS 3 Xrotation Yrotation Zrotation
				JOINT Spine1
				{
					OFFSET 0.000000 11.900002 -1.516600
					CHANNELS 3 Xrotation Yrotation Zrotation
					JOINT Spine2
					{
						OFFSET 0.000000 13.600006 -2.842500
						CHANNELS 3 Xrotation Yrotation Zrotation
						JOINT Neck_virtual
						{
							OFFSET 0.000000 0.000000 0.000000
							CHANNELS 3 Xrotation Yrotation Zrotation
							JOINT Neck
							{
								OFFSET 0.000000 9.624100 -2.890100
								CHANNELS 3 Xrotation Yrotation Zrotation
								JOINT Head
								{
									OFFSET 0.000000 14.068802 -1.351900
									CHANNELS 3 Xrotation Yrotation Zrotation
									End Site
									{
										OFFSET 0 0 0
									}
								}
							}
						}
						JOINT LeftShoulder_virtual
						{
							OFFSET 0.000000 0.000000 0.000000
							CHANNELS 3 Xrotation Yrotation Zrotation
							JOINT LeftShoulder
							{
								OFFSET 15.263000 10.923401 -0.547700
								CHANNELS 3 Xrotation Yrotation Zrotation
								JOINT LeftArm
								{
									OFFSET 25.438599 -2.830597 -13.032500
									CHANNELS 3 Xrotation Yrotation Zrotation
									JOINT LeftForeArm
									{
										OFFSET 29.960503 0.000000 0.000000
										CHANNELS 3 Xrotation Yrotation Zrotation
										JOINT LeftHand
										{
											OFFSET 27.849251 0.000000 0.000000
											CHANNELS 3 Xrotation Yrotation Zrotation
											End Site
											{
												OFFSET 0 0 0
											}
										}
									}
								}
							}
						}
						JOINT RightShoulder_virtual
						{
							OFFSET 0.000000 0.000000 0.000000
							CHANNELS 3 Xrotation Yrotation Zrotation
							JOINT RightShoulder
							{
								OFFSET -15.263000 10.923401 -0.547700
								CHANNELS 3 Xrotation Yrotation Zrotation
								JOINT RightArm
								{
									OFFSET -25.438599 -2.830597 -13.032500
									CHANNELS 3 Xrotation Yrotation Zrotation
									JOINT RightForeArm
									{
										OFFSET -29.960503 0.000000 0.000000
										CHANNELS 3 Xrotation Yrotation Zrotation
										JOINT RightHand
										{
											OFFSET -27.849251 0.000000 0.000000
											CHANNELS 3 Xrotation Yrotation Zrotation
											End Site
											{
												OFFSET 0 0 0
											}
										}
									}
								}
							}
						}
					}
				}
			}
		}
	}
}
MOTION
Frames: 5
Frame Time: 0.03333333
-8.889420 85.394547 14.606880 0.000000 0.000000 0.000000 1.647818 -21.641618 -0.999652 -34.726055 11.692904 18.374860 52.022740 -8.958589 13.994749 -21.689028 4.943451 -27.274108 0.000000 0.000000 0.000000 1.059938 -20.723996 -0.669010 -28.947154 -14.289966 -17.001492 55.390710 -8.644749 -6.625918 -31.966614 -0.058673 23.655945 0.000000 0.000000 0.000000 1.499935 -20.530874 -0.665723 -0.695340 0.015023 0.038622 5.619813 2.900805 3.520193 4.073547 5.469849 -3.488862 0.000000 0.000000 0.000000 -3.454626 2.226411 -0.666732 1.923580 -0.910410 3.030882 0.000000 0.000000 0.000000 -1.060369 1.880492 -0.058115 0.108949 -0.208097 14.124706 -54.158137 -50.934066 -64.123592 -15.501717 -71.761738 -3.476134 0.000000 0.000000 0.000000 -1.907719 2.841969 -2.303776 2.777112 8.254132 -3.408615 -120.979138 71.669762 131.754240 13.636189 17.909487 -41.236492 0.000000 0.000000 0.000000 
-8.716653 85.377769 14.585262 0.000000 0.000000 0.000000 1.420066 -21.891142 -1.104441 -34.555396 11.484627 18.258761 52.149191 -8.832612 14.108002 -21.305356 4.977972 -26.877735 0.000000 0.000000 0.000000 0.821469 -20.982655 -0.849824 -28.632023 -14.577645 -16.974559 55.222178 -8.786370 -6.607662 -32.230157 -0.191355 23.416361 0.000000 0.000000 0.000000 1.228317 -20.773872 -0.792565 -0.702960 0.067245 0.034152 5.835521 3.020969 3.748912 3.864832 5.389085 -3.413696 0.000000 0.000000 0.000000 -3.043674 2.169693 -0.782190 1.887108 -0.941530 2.965078 0.000000 0.000000 0.000000 -1.195595 1.941005 0.028853 0.110801 0.280701 13.760447 -52.770984 -50.337340 -63.420458 -15.189005 -71.943373 -3.543958 0.000000 0.000000 0.000000 -2.744295 2.700187 -2.250621 3.016730 8.637252 -3.190709 -122.832906 73.261606 133.425888 13.805239 18.410485 -41.067035 0.000000 0.000000 0.000000 
-8.426572 85.309532 14.480976 0.000000 0.000000 0.000000 1.107588 -22.329149 -1.220392 -34.165887 11.235066 18.074241 52.192802 -8.816117 14.308168 -21.304593 4.997805 -27.035403 0.000000 0.000000 0.000000 0.448969 -21.375707 -1.058093 -28.319935 -14.791746 -16.821016 55.314833 -9.151524 -6.634158 -32.567865 -0.574585 22.652736 0.000000 0.000000 0.000000 0.851844 -21.264011 -0.948562 -0.714874 0.081945 0.019069 6.051987 3.504797 3.948036 3.707758 5.301011 -3.131964 0.000000 0.000000 0.000000 -2.677577 2.215137 -0.724970 1.901786 -0.821228 2.669429 0.000000 0.000000 0.000000 -1.055692 2.040341 0.329945 0.109842 -0.161265 13.519244 -50.641321 -49.858865 -62.205442 -15.053090 -73.230604 -4.111436 0.000000 0.000000 0.000000 -3.659321 2.702241 -1.965386 3.308206 9.208774 -3.100625 -126.542300 75.763081 136.425529 14.094614 19.224044 -40.621597 0.000000 0.000000 0.000000 
-8.053810 85.227753 14.283699 0.000000 0.000000 0.000000 0.771905 -22.940836 -1.264376 -33.548431 11.123224 17.838982 52.011747 -9.006924 14.449906 -21.697269 4.926756 -27.868270 0.000000 0.000000 0.000000 0.108607 -21.881218 -1.183648 -28.337603 -14.483392 -16.744209 55.745620 -9.531822 -6.736463 -32.658662 -0.961419 21.820311 0.000000 0.000000 0.000000 0.481458 -21.993937 -1.024879 -0.730813 0.052684 -0.005678 6.276930 4.295490 3.982916 3.592600 5.202272 -2.669680 0.000000 0.000000 0.000000 -2.444980 2.325052 -0.484669 1.965621 -0.577029 2.221711 0.000000 0.000000 0.000000 -0.641327 2.165769 0.829814 0.057481 -1.322563 13.565703 -48.563977 -49.436318 -60.829719 -14.945760 -74.887212 -4.775771 0.000000 0.000000 0.000000 -4.473921 2.786109 -1.452367 3.628917 9.919619 -3.182007 -131.975415 78.066897 140.850576 14.271480 19.758433 -40.015425 0.000000 0.000000 0.000000 
-7.622454 85.173508 14.025631 0.000000 0.000000 0.000000 0.491608 -23.769883 -1.203544 -32.942931 11.367883 17.602390 51.643084 -9.210631 14.267185 -21.903624 4.861322 -29.061792 0.000000 0.000000 0.000000 -0.150396 -22.630843 -1.180627 -28.917313 -13.602651 -16.979691 56.439970 -9.790517 -6.874904 -32.067424 -1.133793 21.246664 0.000000 0.000000 0.000000 0.193800 -22.885980 -0.978377 -0.754467 0.012430 -0.025055 6.537067 5.281669 3.815964 3.497082 5.079066 -2.038191 0.000000 0.000000 0.000000 -2.381191 2.413250 -0.074193 2.053901 -0.262136 1.704838 0.000000 0.000000 0.000000 0.011807 2.275799 1.496518 -0.107212 -2.845679 13.867150 -47.103812 -48.843475 -59.647448 -14.510477 -76.170734 -4.985471 0.000000 0.000000 0.000000 -5.029582 2.877780 -0.702399 3.937358 10.712295 -3.537054 -136.441648 79.207354 144.274591 14.193507 19.547959 -39.443752 0.000000 0.000000 0.000000 
